<svg width="32" height="31" viewBox="0 0 32 31" fill="none" xmlns="http://www.w3.org/2000/svg">
<g clip-path="url(#clip0_150_361)">
<path d="M29.1022 23.2525C29.1295 23.5709 28.881 23.8445 28.5647 23.8445H2.54932C2.23381 23.8445 1.98561 23.5722 2.01164 23.2544L3.87598 0.50016C3.89918 0.217508 4.13295 0 4.4138 0H26.6227C26.9027 0 27.1362 0.216418 27.1602 0.498252L29.1022 23.2525Z" fill="#1DCF65"/>
<path d="M31.1789 29.1893C31.2114 29.5864 30.9011 29.9268 30.5069 29.9268H0.67446C0.280981 29.9268 -0.0290002 29.588 0.00215983 29.1916L2.14384 1.93507C2.17176 1.58059 2.46434 1.30762 2.81614 1.30762H28.2759C28.6269 1.30762 28.9192 1.5795 28.948 1.93289L31.1789 29.1893Z" fill="url(#paint0_linear_150_361)"/>
<path d="M15.0033 21.2832C11.1203 21.2832 7.96143 17.451 7.96143 12.7407C7.96143 12.4954 8.15823 12.2964 8.40117 12.2964C8.64411 12.2964 8.84092 12.4952 8.84092 12.7407C8.84092 16.9611 11.6054 20.3946 15.0035 20.3946C18.4015 20.3946 21.166 16.9611 21.166 12.7407C21.166 12.4954 21.3628 12.2964 21.6057 12.2964C21.8487 12.2964 22.0455 12.4952 22.0455 12.7407C22.0453 17.451 18.8863 21.2832 15.0033 21.2832Z" fill="white"/>
<path d="M19.3382 12.6216C19.2257 12.6216 19.1132 12.5783 19.0272 12.4915C18.8555 12.318 18.8555 12.0367 19.0272 11.8632L21.3061 9.56081C21.3885 9.47755 21.5003 9.43066 21.617 9.43066C21.7337 9.43066 21.8455 9.47741 21.9279 9.56081L24.1845 11.8408C24.3563 12.0143 24.3563 12.2956 24.1845 12.4691C24.0128 12.6425 23.7344 12.6426 23.5627 12.4691L21.6169 10.5034L19.6491 12.4915C19.5632 12.5783 19.4507 12.6216 19.3382 12.6216Z" fill="white"/>
</g>
<defs>
<linearGradient id="paint0_linear_150_361" x1="24.9534" y1="25.9216" x2="6.59333" y2="4.48869" gradientUnits="userSpaceOnUse">
<stop stop-color="#52D67A"/>
<stop offset="1" stop-color="#5AEE87"/>
</linearGradient>
<clipPath id="clip0_150_361">
<rect width="31.16" height="30.176" fill="white"/>
</clipPath>
</defs>
</svg>
